<?xml version="1.0" encoding="UTF-8" standalone="no"?>
<!-- Created with Inkscape (http://www.inkscape.org/) -->

<svg
   xmlns:dc="http://purl.org/dc/elements/1.1/"
   xmlns:cc="http://creativecommons.org/ns#"
   xmlns:rdf="http://www.w3.org/1999/02/22-rdf-syntax-ns#"
   xmlns:svg="http://www.w3.org/2000/svg"
   xmlns="http://www.w3.org/2000/svg"
   xmlns:sodipodi="http://sodipodi.sourceforge.net/DTD/sodipodi-0.dtd"
   xmlns:inkscape="http://www.inkscape.org/namespaces/inkscape"
   width="744.09448819"
   height="1052.3622047"
   id="svg2"
   version="1.1"
   inkscape:version="0.48.4 r9939"
   sodipodi:docname="New document 1">
  <defs
     id="defs4" />
  <sodipodi:namedview
     id="base"
     pagecolor="#ffffff"
     bordercolor="#666666"
     borderopacity="1.0"
     inkscape:pageopacity="0.0"
     inkscape:pageshadow="2"
     inkscape:zoom="2.8813131"
     inkscape:cx="279.00728"
     inkscape:cy="760.71429"
     inkscape:document-units="px"
     inkscape:current-layer="layer1"
     showgrid="false"
     inkscape:window-width="1920"
     inkscape:window-height="1018"
     inkscape:window-x="-8"
     inkscape:window-y="-8"
     inkscape:window-maximized="1" />
  <metadata
     id="metadata7">
    <rdf:RDF>
      <cc:Work
         rdf:about="">
        <dc:format>image/svg+xml</dc:format>
        <dc:type
           rdf:resource="http://purl.org/dc/dcmitype/StillImage" />
        <dc:title></dc:title>
      </cc:Work>
    </rdf:RDF>
  </metadata>
  <g
     inkscape:label="Layer 1"
     inkscape:groupmode="layer"
     id="layer1">
    <g
       id="g3867">
      <path
         inkscape:connector-curvature="0"
         id="path3790"
         d="m 342.85714,172.36218 -104.28571,60 -7.14286,110 105,61.42857 102.85714,-51.42857 2.14286,-126.42857 z"
         style="fill:none;stroke:#000000;stroke-width:3;stroke-linecap:butt;stroke-linejoin:miter;stroke-opacity:1;stroke-miterlimit:4;stroke-dasharray:none" />
      <path
         inkscape:connector-curvature="0"
         id="path3794"
         d="m 344.28747,226.69698 -55.18318,42.3418 15.96495,64.90097 65.24803,-1.73532 14.57668,-59.69501 z"
         style="fill:none;stroke:#000000;stroke-width:2;stroke-linecap:butt;stroke-linejoin:miter;stroke-opacity:1;stroke-miterlimit:4;stroke-dasharray:none" />
      <path
         inkscape:connector-curvature="0"
         id="path3796"
         d="m 342.55215,172.20793 1.73532,54.48905 -105.16039,4.85889 50.32428,37.13585 -57.95969,73.2305 73.57757,-7.98247 31.23576,69.75986 33.6652,-72.18931 68.71867,20.47677 -53.79492,-79.82471 56.9185,-46.15951 -98.21911,0.69413"
         style="fill:none;stroke:#000000;stroke-width:2;stroke-linecap:butt;stroke-linejoin:miter;stroke-opacity:1;stroke-miterlimit:4;stroke-dasharray:none" />
    </g>
    <g
       id="g3782"
       transform="translate(7.3562558,1.8264662)">
      <path
         transform="matrix(0.65503775,0,0,0.68360918,106.46354,33.198253)"
         d="m 363.57144,202.00504 c 0,6.90355 -5.59644,12.5 -12.5,12.5 -6.90356,0 -12.5,-5.59645 -12.5,-12.5 0,-6.90356 5.59644,-12.5 12.5,-12.5 6.90356,0 12.5,5.59644 12.5,12.5 z"
         sodipodi:ry="12.5"
         sodipodi:rx="12.5"
         sodipodi:cy="202.00504"
         sodipodi:cx="351.07144"
         id="path2985"
         style="fill:#0000ff;stroke:#0000ff;stroke-width:2;stroke-miterlimit:4;stroke-dasharray:none;stroke-dashoffset:0"
         sodipodi:type="arc" />
      <path
         sodipodi:type="arc"
         style="fill:#0000ff;stroke:#0000ff;stroke-width:2;stroke-miterlimit:4;stroke-dasharray:none;stroke-dashoffset:0"
         id="path2987"
         sodipodi:cx="351.07144"
         sodipodi:cy="202.00504"
         sodipodi:rx="12.5"
         sodipodi:ry="12.5"
         d="m 363.57144,202.00504 c 0,6.90355 -5.59644,12.5 -12.5,12.5 -6.90356,0 -12.5,-5.59645 -12.5,-12.5 0,-6.90356 5.59644,-12.5 12.5,-12.5 6.90356,0 12.5,5.59644 12.5,12.5 z"
         transform="matrix(0.65503775,0,0,0.68360918,1.4635374,91.769687)" />
      <path
         transform="matrix(0.65503775,0,0,0.68360918,205.03496,87.483973)"
         d="m 363.57144,202.00504 c 0,6.90355 -5.59644,12.5 -12.5,12.5 -6.90356,0 -12.5,-5.59645 -12.5,-12.5 0,-6.90356 5.59644,-12.5 12.5,-12.5 6.90356,0 12.5,5.59644 12.5,12.5 z"
         sodipodi:ry="12.5"
         sodipodi:rx="12.5"
         sodipodi:cy="202.00504"
         sodipodi:cx="351.07144"
         id="path2989"
         style="fill:#0000ff;stroke:#0000ff;stroke-width:2;stroke-miterlimit:4;stroke-dasharray:none;stroke-dashoffset:0"
         sodipodi:type="arc" />
      <path
         sodipodi:type="arc"
         style="fill:#0000ff;stroke:#0000ff;stroke-width:2;stroke-miterlimit:4;stroke-dasharray:none;stroke-dashoffset:0"
         id="path2991"
         sodipodi:cx="351.07144"
         sodipodi:cy="202.00504"
         sodipodi:rx="12.5"
         sodipodi:ry="12.5"
         d="m 363.57144,202.00504 c 0,6.90355 -5.59644,12.5 -12.5,12.5 -6.90356,0 -12.5,-5.59645 -12.5,-12.5 0,-6.90356 5.59644,-12.5 12.5,-12.5 6.90356,0 12.5,5.59644 12.5,12.5 z"
         transform="matrix(0.65503775,0,0,0.68360918,-5.6793178,201.76969)" />
      <path
         transform="matrix(0.65503775,0,0,0.68360918,100.74925,263.91255)"
         d="m 363.57144,202.00504 c 0,6.90355 -5.59644,12.5 -12.5,12.5 -6.90356,0 -12.5,-5.59645 -12.5,-12.5 0,-6.90356 5.59644,-12.5 12.5,-12.5 6.90356,0 12.5,5.59644 12.5,12.5 z"
         sodipodi:ry="12.5"
         sodipodi:rx="12.5"
         sodipodi:cy="202.00504"
         sodipodi:cx="351.07144"
         id="path2993"
         style="fill:#0000ff;stroke:#0000ff;stroke-width:2;stroke-miterlimit:4;stroke-dasharray:none;stroke-dashoffset:0"
         sodipodi:type="arc" />
      <path
         sodipodi:type="arc"
         style="fill:#0000ff;stroke:#0000ff;stroke-width:2;stroke-miterlimit:4;stroke-dasharray:none;stroke-dashoffset:0"
         id="path2995"
         sodipodi:cx="351.07144"
         sodipodi:cy="202.00504"
         sodipodi:rx="12.5"
         sodipodi:ry="12.5"
         d="m 363.57144,202.00504 c 0,6.90355 -5.59644,12.5 -12.5,12.5 -6.90356,0 -12.5,-5.59645 -12.5,-12.5 0,-6.90356 5.59644,-12.5 12.5,-12.5 6.90356,0 12.5,5.59644 12.5,12.5 z"
         transform="matrix(0.65503775,0,0,0.68360918,202.17783,213.91255)" />
    </g>
    <g
       id="g3775"
       transform="translate(7.3764102,5.2927268)">
      <path
         sodipodi:type="arc"
         style="fill:#d40000;stroke:#aa0000;stroke-width:2;stroke-miterlimit:4;stroke-dasharray:none;stroke-dashoffset:0"
         id="path2997"
         sodipodi:cx="351.07144"
         sodipodi:cy="202.00504"
         sodipodi:rx="12.5"
         sodipodi:ry="12.5"
         d="m 363.57144,202.00504 c 0,6.90355 -5.59644,12.5 -12.5,12.5 -6.90356,0 -12.5,-5.59645 -12.5,-12.5 0,-6.90356 5.59644,-12.5 12.5,-12.5 6.90356,0 12.5,5.59644 12.5,12.5 z"
         transform="matrix(0.65503775,0,0,0.68360918,51.463538,125.34111)" />
      <path
         transform="matrix(0.65503775,0,0,0.68360918,67.177823,189.62683)"
         d="m 363.57144,202.00504 c 0,6.90355 -5.59644,12.5 -12.5,12.5 -6.90356,0 -12.5,-5.59645 -12.5,-12.5 0,-6.90356 5.59644,-12.5 12.5,-12.5 6.90356,0 12.5,5.59644 12.5,12.5 z"
         sodipodi:ry="12.5"
         sodipodi:rx="12.5"
         sodipodi:cy="202.00504"
         sodipodi:cx="351.07144"
         id="path3767"
         style="fill:#d40000;stroke:#aa0000;stroke-width:2;stroke-miterlimit:4;stroke-dasharray:none;stroke-dashoffset:0"
         sodipodi:type="arc" />
      <path
         sodipodi:type="arc"
         style="fill:#d40000;stroke:#aa0000;stroke-width:2;stroke-miterlimit:4;stroke-dasharray:none;stroke-dashoffset:0"
         id="path3769"
         sodipodi:cx="351.07144"
         sodipodi:cy="202.00504"
         sodipodi:rx="12.5"
         sodipodi:ry="12.5"
         d="m 363.57144,202.00504 c 0,6.90355 -5.59644,12.5 -12.5,12.5 -6.90356,0 -12.5,-5.59645 -12.5,-12.5 0,-6.90356 5.59644,-12.5 12.5,-12.5 6.90356,0 12.5,5.59644 12.5,12.5 z"
         transform="matrix(0.65503775,0,0,0.68360918,132.17782,188.91255)" />
      <path
         transform="matrix(0.65503775,0,0,0.68360918,106.46354,83.198253)"
         d="m 363.57144,202.00504 c 0,6.90355 -5.59644,12.5 -12.5,12.5 -6.90356,0 -12.5,-5.59645 -12.5,-12.5 0,-6.90356 5.59644,-12.5 12.5,-12.5 6.90356,0 12.5,5.59644 12.5,12.5 z"
         sodipodi:ry="12.5"
         sodipodi:rx="12.5"
         sodipodi:cy="202.00504"
         sodipodi:cx="351.07144"
         id="path3771"
         style="fill:#d40000;stroke:#aa0000;stroke-width:2;stroke-miterlimit:4;stroke-dasharray:none;stroke-dashoffset:0"
         sodipodi:type="arc" />
      <path
         sodipodi:type="arc"
         style="fill:#d40000;stroke:#aa0000;stroke-width:2;stroke-miterlimit:4;stroke-dasharray:none;stroke-dashoffset:0"
         id="path3773"
         sodipodi:cx="351.07144"
         sodipodi:cy="202.00504"
         sodipodi:rx="12.5"
         sodipodi:ry="12.5"
         d="m 363.57144,202.00504 c 0,6.90355 -5.59644,12.5 -12.5,12.5 -6.90356,0 -12.5,-5.59645 -12.5,-12.5 0,-6.90356 5.59644,-12.5 12.5,-12.5 6.90356,0 12.5,5.59644 12.5,12.5 z"
         transform="matrix(0.65503775,0,0,0.68360918,146.46354,129.62682)" />
    </g>
  </g>
</svg>
