<?xml version="1.0" encoding="UTF-8" standalone="no"?>
<!-- Created with Inkscape (http://www.inkscape.org/) -->

<svg
   xmlns:dc="http://purl.org/dc/elements/1.1/"
   xmlns:cc="http://creativecommons.org/ns#"
   xmlns:rdf="http://www.w3.org/1999/02/22-rdf-syntax-ns#"
   xmlns:svg="http://www.w3.org/2000/svg"
   xmlns="http://www.w3.org/2000/svg"
   xmlns:sodipodi="http://sodipodi.sourceforge.net/DTD/sodipodi-0.dtd"
   xmlns:inkscape="http://www.inkscape.org/namespaces/inkscape"
   width="744.09448819"
   height="1052.3622047"
   id="svg2"
   version="1.1"
   inkscape:version="0.48.4 r9939"
   sodipodi:docname="New document 1">
  <defs
     id="defs4">
    <marker
       inkscape:stockid="Arrow1Mstart"
       orient="auto"
       refY="0.0"
       refX="0.0"
       id="Arrow1Mstart"
       style="overflow:visible">
      <path
         id="path3834"
         d="M 0.0,0.0 L 5.0,-5.0 L -12.5,0.0 L 5.0,5.0 L 0.0,0.0 z "
         style="fill-rule:evenodd;stroke:#000000;stroke-width:1.0pt"
         transform="scale(0.4) translate(10,0)" />
    </marker>
  </defs>
  <sodipodi:namedview
     id="base"
     pagecolor="#ffffff"
     bordercolor="#666666"
     borderopacity="1.0"
     inkscape:pageopacity="0.0"
     inkscape:pageshadow="2"
     inkscape:zoom="2.043112"
     inkscape:cx="381.93418"
     inkscape:cy="731.1895"
     inkscape:document-units="px"
     inkscape:current-layer="layer1"
     showgrid="false"
     inkscape:window-width="1920"
     inkscape:window-height="1018"
     inkscape:window-x="-8"
     inkscape:window-y="-8"
     inkscape:window-maximized="1" />
  <metadata
     id="metadata7">
    <rdf:RDF>
      <cc:Work
         rdf:about="">
        <dc:format>image/svg+xml</dc:format>
        <dc:type
           rdf:resource="http://purl.org/dc/dcmitype/StillImage" />
        <dc:title></dc:title>
      </cc:Work>
    </rdf:RDF>
  </metadata>
  <g
     inkscape:label="Layer 1"
     inkscape:groupmode="layer"
     id="layer1">
    <path
       transform="matrix(1.018831,0,0,1.0417982,-53.535941,23.329206)"
       d="m 150.70214,347.38934 a 9.5901356,9.002985 0 1 1 -19.18028,0 9.5901356,9.002985 0 1 1 19.18028,0 z"
       sodipodi:ry="9.002985"
       sodipodi:rx="9.5901356"
       sodipodi:cy="347.38934"
       sodipodi:cx="141.112"
       id="path2998"
       style="fill:#a349a4;fill-opacity:1;stroke:#a349a4;stroke-width:1;stroke-miterlimit:4;stroke-dasharray:none;stroke-dashoffset:0"
       sodipodi:type="arc" />
    <path
       sodipodi:type="arc"
       style="fill:#00a2e8;fill-opacity:1;stroke:#00a2e8;stroke-width:1;stroke-miterlimit:4;stroke-dasharray:none;stroke-dashoffset:0"
       id="path3000"
       sodipodi:cx="141.112"
       sodipodi:cy="347.38934"
       sodipodi:rx="9.5901356"
       sodipodi:ry="9.002985"
       d="m 150.70214,347.38934 a 9.5901356,9.002985 0 1 1 -19.18028,0 9.5901356,9.002985 0 1 1 19.18028,0 z"
       transform="matrix(1.018831,0,0,1.0417982,39.745963,24.112074)" />
    <path
       transform="matrix(1.018831,0,0,1.0417982,36.681849,-68.146732)"
       d="m 150.70214,347.38934 a 9.5901356,9.002985 0 1 1 -19.18028,0 9.5901356,9.002985 0 1 1 19.18028,0 z"
       sodipodi:ry="9.002985"
       sodipodi:rx="9.5901356"
       sodipodi:cy="347.38934"
       sodipodi:cx="141.112"
       id="path3002"
       style="fill:#ffc90e;fill-opacity:1;stroke:#ffc90e;stroke-width:1;stroke-miterlimit:4;stroke-dasharray:none;stroke-dashoffset:0"
       sodipodi:type="arc" />
    <path
       sodipodi:type="arc"
       style="fill:#b97a57;fill-opacity:1;stroke:#b97a57;stroke-width:1;stroke-miterlimit:4;stroke-dasharray:none;stroke-dashoffset:0"
       id="path3004"
       sodipodi:cx="141.112"
       sodipodi:cy="347.38934"
       sodipodi:rx="9.5901356"
       sodipodi:ry="9.002985"
       d="m 150.70214,347.38934 a 9.5901356,9.002985 0 1 1 -19.18028,0 9.5901356,9.002985 0 1 1 19.18028,0 z"
       transform="matrix(1.018831,0,0,1.0417982,-66.656757,-77.149716)" />
    <path
       style="fill:#f2f2f2;stroke:#000000;stroke-width:1px;stroke-linecap:butt;stroke-linejoin:miter;stroke-opacity:1"
       d="m 233.29473,294.54574 0.39143,20.74601 37.57768,-1.17431 -0.39144,11.74303 39.53485,-21.13744 -37.96911,-20.35458 -0.78287,11.74303 z"
       id="path3044"
       inkscape:connector-curvature="0" />
    <path
       inkscape:connector-curvature="0"
       id="path3046"
       d="m 477.15818,300.41725 0.39143,20.74601 37.57768,-1.17431 -0.39144,11.74303 39.53485,-21.13744 -37.96911,-20.35458 -0.78287,11.74303 z"
       style="fill:#f2f2f2;stroke:#000000;stroke-width:1px;stroke-linecap:butt;stroke-linejoin:miter;stroke-opacity:1" />
    <path
       style="fill:none;stroke:#000000;stroke-width:2;stroke-linecap:butt;stroke-linejoin:miter;stroke-miterlimit:4;stroke-opacity:1;stroke-dasharray:none"
       d="M 112.20677,248.53797 87.440643,272.79348"
       id="path3052"
       inkscape:connector-curvature="0" />
    <path
       style="fill:none;stroke:#000000;stroke-width:1.5;stroke-linecap:butt;stroke-linejoin:miter;stroke-miterlimit:4;stroke-opacity:1;stroke-dasharray:none;marker-start:url(#Arrow1Mstart)"
       d="m 85.630276,274.51144 1.91206,-1.76712"
       id="path3822"
       inkscape:connector-curvature="0" />
    <path
       inkscape:connector-curvature="0"
       id="path4268"
       d="m 99.161371,375.61166 1.912059,-1.76712"
       style="fill:none;stroke:#000000;stroke-width:1.5;stroke-linecap:butt;stroke-linejoin:miter;stroke-miterlimit:4;stroke-opacity:1;stroke-dasharray:none;marker-start:url(#Arrow1Mstart)" />
    <path
       style="fill:none;stroke:#000000;stroke-width:1.5;stroke-linecap:butt;stroke-linejoin:miter;stroke-miterlimit:4;stroke-opacity:1;stroke-dasharray:none;marker-start:url(#Arrow1Mstart)"
       d="m 148.69026,328.38049 1.91206,-1.76712"
       id="path4270"
       inkscape:connector-curvature="0" />
    <path
       inkscape:connector-curvature="0"
       id="path4272"
       d="m 174.87155,376.12227 -1.91206,-1.76712"
       style="fill:none;stroke:#000000;stroke-width:1.5;stroke-linecap:butt;stroke-linejoin:miter;stroke-miterlimit:4;stroke-opacity:1;stroke-dasharray:none;marker-start:url(#Arrow1Mstart)" />
    <path
       style="fill:none;stroke:#000000;stroke-width:1.5;stroke-linecap:butt;stroke-linejoin:miter;stroke-miterlimit:4;stroke-opacity:1;stroke-dasharray:none;marker-start:url(#Arrow1Mstart)"
       d="m 171.04199,284.21297 -1.91206,-1.76712"
       id="path4274"
       inkscape:connector-curvature="0" />
    <path
       style="fill:none;stroke:#000000;stroke-width:2;stroke-linecap:butt;stroke-linejoin:miter;stroke-miterlimit:4;stroke-opacity:1;stroke-dasharray:none"
       d="m 125.09876,245.85812 42.6357,34.9766"
       id="path4282"
       inkscape:connector-curvature="0"
       sodipodi:nodetypes="cc" />
    <path
       style="fill:none;stroke:#000000;stroke-width:2;stroke-linecap:butt;stroke-linejoin:miter;stroke-opacity:1;stroke-miterlimit:4;stroke-dasharray:none"
       d="m 174.62766,301.76961 -22.72202,23.74323"
       id="path4284"
       inkscape:connector-curvature="0" />
    <path
       style="fill:none;stroke:#000000;stroke-width:2;stroke-linecap:butt;stroke-linejoin:miter;stroke-miterlimit:4;stroke-opacity:1;stroke-dasharray:none"
       d="m 142.45941,343.6394 29.61522,30.12582"
       id="path4286"
       inkscape:connector-curvature="0"
       sodipodi:nodetypes="cc" />
    <path
       style="fill:none;stroke:#000000;stroke-width:2;stroke-linecap:butt;stroke-linejoin:miter;stroke-miterlimit:4;stroke-opacity:1;stroke-dasharray:none"
       d="m 135.56621,343.6394 c -1.53182,0.25531 -32.67886,29.10461 -32.67886,29.10461"
       id="path4288"
       inkscape:connector-curvature="0"
       sodipodi:nodetypes="cc" />
    <path
       transform="matrix(1.018831,0,0,1.0417982,-24.5425,-118.85981)"
       d="m 150.70214,347.38934 a 9.5901356,9.002985 0 1 1 -19.18028,0 9.5901356,9.002985 0 1 1 19.18028,0 z"
       sodipodi:ry="9.002985"
       sodipodi:rx="9.5901356"
       sodipodi:cy="347.38934"
       sodipodi:cx="141.112"
       id="path3006"
       style="fill:#22b14c;fill-opacity:1;stroke:#22b14c;stroke-width:1;stroke-miterlimit:4;stroke-dasharray:none;stroke-dashoffset:0"
       sodipodi:type="arc" />
    <path
       sodipodi:type="arc"
       style="fill:#ff0000;fill-opacity:1;stroke:#ff0000;stroke-width:1;stroke-miterlimit:4;stroke-dasharray:none;stroke-dashoffset:0"
       id="path2996"
       sodipodi:cx="141.112"
       sodipodi:cy="347.38934"
       sodipodi:rx="9.5901356"
       sodipodi:ry="9.002985"
       d="m 150.70214,347.38934 a 9.5901356,9.002985 0 1 1 -19.18028,0 9.5901356,9.002985 0 1 1 19.18028,0 z"
       transform="matrix(1.018831,0,0,1.0417982,-2.8416945,-23.886872)" />
    <path
       sodipodi:type="arc"
       style="fill:#a349a4;fill-opacity:1;stroke:#a349a4;stroke-width:1;stroke-miterlimit:4;stroke-dasharray:none;stroke-dashoffset:0"
       id="path4326"
       sodipodi:cx="141.112"
       sodipodi:cy="347.38934"
       sodipodi:rx="9.5901356"
       sodipodi:ry="9.002985"
       d="m 150.70214,347.38934 a 9.5901356,9.002985 0 1 1 -19.18028,0 9.5901356,9.002985 0 1 1 19.18028,0 z"
       transform="matrix(1.018831,0,0,1.0417982,207.89494,20.520867)" />
    <path
       transform="matrix(1.018831,0,0,1.0417982,301.17685,21.303735)"
       d="m 150.70214,347.38934 a 9.5901356,9.002985 0 1 1 -19.18028,0 9.5901356,9.002985 0 1 1 19.18028,0 z"
       sodipodi:ry="9.002985"
       sodipodi:rx="9.5901356"
       sodipodi:cy="347.38934"
       sodipodi:cx="141.112"
       id="path4328"
       style="fill:#00a2e8;fill-opacity:1;stroke:#00a2e8;stroke-width:1;stroke-miterlimit:4;stroke-dasharray:none;stroke-dashoffset:0"
       sodipodi:type="arc" />
    <path
       sodipodi:type="arc"
       style="fill:#ffc90e;fill-opacity:1;stroke:#ffc90e;stroke-width:1;stroke-miterlimit:4;stroke-dasharray:none;stroke-dashoffset:0"
       id="path4330"
       sodipodi:cx="141.112"
       sodipodi:cy="347.38934"
       sodipodi:rx="9.5901356"
       sodipodi:ry="9.002985"
       d="m 150.70214,347.38934 a 9.5901356,9.002985 0 1 1 -19.18028,0 9.5901356,9.002985 0 1 1 19.18028,0 z"
       transform="matrix(1.018831,0,0,1.0417982,298.11273,-70.955071)" />
    <path
       transform="matrix(1.018831,0,0,1.0417982,194.77413,-79.958055)"
       d="m 150.70214,347.38934 a 9.5901356,9.002985 0 1 1 -19.18028,0 9.5901356,9.002985 0 1 1 19.18028,0 z"
       sodipodi:ry="9.002985"
       sodipodi:rx="9.5901356"
       sodipodi:cy="347.38934"
       sodipodi:cx="141.112"
       id="path4332"
       style="fill:#b97a57;fill-opacity:1;stroke:#b97a57;stroke-width:1;stroke-miterlimit:4;stroke-dasharray:none;stroke-dashoffset:0"
       sodipodi:type="arc" />
    <path
       inkscape:connector-curvature="0"
       id="path4334"
       d="m 373.63765,245.72963 -24.76612,24.25551"
       style="fill:none;stroke:#000000;stroke-width:2;stroke-linecap:butt;stroke-linejoin:miter;stroke-miterlimit:4;stroke-opacity:1;stroke-dasharray:none" />
    <path
       inkscape:connector-curvature="0"
       id="path4336"
       d="m 347.06116,271.7031 1.91206,-1.76712"
       style="fill:none;stroke:#000000;stroke-width:1.5;stroke-linecap:butt;stroke-linejoin:miter;stroke-miterlimit:4;stroke-opacity:1;stroke-dasharray:none;marker-start:url(#Arrow1Mstart)" />
    <path
       style="fill:none;stroke:#000000;stroke-width:1.5;stroke-linecap:butt;stroke-linejoin:miter;stroke-miterlimit:4;stroke-opacity:1;stroke-dasharray:none;marker-start:url(#Arrow1Mstart)"
       d="m 360.59226,372.80332 1.91205,-1.76712"
       id="path4338"
       inkscape:connector-curvature="0" />
    <path
       inkscape:connector-curvature="0"
       id="path4340"
       d="m 435.58195,299.35436 -1.91206,1.76712"
       style="fill:none;stroke:#000000;stroke-width:1.5;stroke-linecap:butt;stroke-linejoin:miter;stroke-miterlimit:4;stroke-opacity:1;stroke-dasharray:none;marker-start:url(#Arrow1Mstart)" />
    <path
       style="fill:none;stroke:#000000;stroke-width:1.5;stroke-linecap:butt;stroke-linejoin:miter;stroke-miterlimit:4;stroke-opacity:1;stroke-dasharray:none;marker-start:url(#Arrow1Mstart)"
       d="m 436.30243,373.31393 -1.91206,-1.76712"
       id="path4342"
       inkscape:connector-curvature="0" />
    <path
       inkscape:connector-curvature="0"
       id="path4344"
       d="m 432.47287,281.40463 -1.91206,-1.76712"
       style="fill:none;stroke:#000000;stroke-width:1.5;stroke-linecap:butt;stroke-linejoin:miter;stroke-miterlimit:4;stroke-opacity:1;stroke-dasharray:none;marker-start:url(#Arrow1Mstart)" />
    <path
       sodipodi:nodetypes="cc"
       inkscape:connector-curvature="0"
       id="path4346"
       d="m 386.52964,243.04978 42.6357,34.9766"
       style="fill:none;stroke:#000000;stroke-width:2;stroke-linecap:butt;stroke-linejoin:miter;stroke-miterlimit:4;stroke-opacity:1;stroke-dasharray:none" />
    <path
       inkscape:connector-curvature="0"
       id="path4348"
       d="m 406.0703,329.53949 26.29627,-27.31748"
       style="fill:none;stroke:#000000;stroke-width:2;stroke-linecap:butt;stroke-linejoin:miter;stroke-miterlimit:4;stroke-opacity:1;stroke-dasharray:none"
       sodipodi:nodetypes="cc" />
    <path
       sodipodi:nodetypes="cc"
       inkscape:connector-curvature="0"
       id="path4350"
       d="m 403.89029,340.83106 29.61522,30.12582"
       style="fill:none;stroke:#000000;stroke-width:2;stroke-linecap:butt;stroke-linejoin:miter;stroke-miterlimit:4;stroke-opacity:1;stroke-dasharray:none" />
    <path
       sodipodi:nodetypes="cc"
       inkscape:connector-curvature="0"
       id="path4352"
       d="m 396.99709,340.83106 c -1.53182,0.25531 -32.67886,29.10461 -32.67886,29.10461"
       style="fill:none;stroke:#000000;stroke-width:2;stroke-linecap:butt;stroke-linejoin:miter;stroke-miterlimit:4;stroke-opacity:1;stroke-dasharray:none" />
    <path
       sodipodi:type="arc"
       style="fill:#22b14c;fill-opacity:1;stroke:#22b14c;stroke-width:1;stroke-miterlimit:4;stroke-dasharray:none;stroke-dashoffset:0"
       id="path4354"
       sodipodi:cx="141.112"
       sodipodi:cy="347.38934"
       sodipodi:rx="9.5901356"
       sodipodi:ry="9.002985"
       d="m 150.70214,347.38934 a 9.5901356,9.002985 0 1 1 -19.18028,0 9.5901356,9.002985 0 1 1 19.18028,0 z"
       transform="matrix(1.018831,0,0,1.0417982,236.88838,-121.66815)" />
    <path
       transform="matrix(1.018831,0,0,1.0417982,258.58919,-26.695211)"
       d="m 150.70214,347.38934 a 9.5901356,9.002985 0 1 1 -19.18028,0 9.5901356,9.002985 0 1 1 19.18028,0 z"
       sodipodi:ry="9.002985"
       sodipodi:rx="9.5901356"
       sodipodi:cy="347.38934"
       sodipodi:cx="141.112"
       id="path4356"
       style="fill:#ff0000;fill-opacity:1;stroke:#ff0000;stroke-width:1;stroke-miterlimit:4;stroke-dasharray:none;stroke-dashoffset:0"
       sodipodi:type="arc" />
    <path
       transform="matrix(1.018831,0,0,1.0417982,456.05003,23.329205)"
       d="m 150.70214,347.38934 a 9.5901356,9.002985 0 1 1 -19.18028,0 9.5901356,9.002985 0 1 1 19.18028,0 z"
       sodipodi:ry="9.002985"
       sodipodi:rx="9.5901356"
       sodipodi:cy="347.38934"
       sodipodi:cx="141.112"
       id="path4358"
       style="fill:#a349a4;fill-opacity:1;stroke:#a349a4;stroke-width:1;stroke-miterlimit:4;stroke-dasharray:none;stroke-dashoffset:0"
       sodipodi:type="arc" />
    <path
       sodipodi:type="arc"
       style="fill:#00a2e8;fill-opacity:1;stroke:#00a2e8;stroke-width:1;stroke-miterlimit:4;stroke-dasharray:none;stroke-dashoffset:0"
       id="path4360"
       sodipodi:cx="141.112"
       sodipodi:cy="347.38934"
       sodipodi:rx="9.5901356"
       sodipodi:ry="9.002985"
       d="m 150.70214,347.38934 a 9.5901356,9.002985 0 1 1 -19.18028,0 9.5901356,9.002985 0 1 1 19.18028,0 z"
       transform="matrix(1.018831,0,0,1.0417982,549.33194,24.112073)" />
    <path
       sodipodi:type="arc"
       style="fill:#b97a57;fill-opacity:1;stroke:#b97a57;stroke-width:1;stroke-miterlimit:4;stroke-dasharray:none;stroke-dashoffset:0"
       id="path4364"
       sodipodi:cx="141.112"
       sodipodi:cy="347.38934"
       sodipodi:rx="9.5901356"
       sodipodi:ry="9.002985"
       d="m 150.70214,347.38934 a 9.5901356,9.002985 0 1 1 -19.18028,0 9.5901356,9.002985 0 1 1 19.18028,0 z"
       transform="matrix(1.018831,0,0,1.0417982,442.92922,-77.149717)" />
    <path
       style="fill:none;stroke:#000000;stroke-width:2;stroke-linecap:butt;stroke-linejoin:miter;stroke-miterlimit:4;stroke-opacity:1;stroke-dasharray:none"
       d="m 621.79274,248.53798 -24.76612,24.25551"
       id="path4366"
       inkscape:connector-curvature="0" />
    <path
       style="fill:none;stroke:#000000;stroke-width:1.5;stroke-linecap:butt;stroke-linejoin:miter;stroke-miterlimit:4;stroke-opacity:1;stroke-dasharray:none;marker-start:url(#Arrow1Mstart)"
       d="m 595.21625,274.51145 1.91206,-1.76712"
       id="path4368"
       inkscape:connector-curvature="0" />
    <path
       inkscape:connector-curvature="0"
       id="path4370"
       d="m 608.74735,375.61167 1.91205,-1.76712"
       style="fill:none;stroke:#000000;stroke-width:1.5;stroke-linecap:butt;stroke-linejoin:miter;stroke-miterlimit:4;stroke-opacity:1;stroke-dasharray:none;marker-start:url(#Arrow1Mstart)" />
    <path
       style="fill:none;stroke:#000000;stroke-width:1.5;stroke-linecap:butt;stroke-linejoin:miter;stroke-miterlimit:4;stroke-opacity:1;stroke-dasharray:none;marker-start:url(#Arrow1Mstart)"
       d="m 683.73704,302.16271 -1.91206,1.76712"
       id="path4372"
       inkscape:connector-curvature="0" />
    <path
       inkscape:connector-curvature="0"
       id="path4374"
       d="m 684.45752,376.12228 -1.91206,-1.76712"
       style="fill:none;stroke:#000000;stroke-width:1.5;stroke-linecap:butt;stroke-linejoin:miter;stroke-miterlimit:4;stroke-opacity:1;stroke-dasharray:none;marker-start:url(#Arrow1Mstart)" />
    <path
       style="fill:none;stroke:#000000;stroke-width:1.5;stroke-linecap:butt;stroke-linejoin:miter;stroke-miterlimit:4;stroke-opacity:1;stroke-dasharray:none;marker-start:url(#Arrow1Mstart)"
       d="m 639.50148,250.33608 1.91206,1.76712"
       id="path4376"
       inkscape:connector-curvature="0" />
    <path
       style="fill:none;stroke:#000000;stroke-width:2;stroke-linecap:butt;stroke-linejoin:miter;stroke-miterlimit:4;stroke-opacity:1;stroke-dasharray:none"
       d="m 685.44471,288.69093 -42.6357,-34.9766"
       id="path4378"
       inkscape:connector-curvature="0"
       sodipodi:nodetypes="cc" />
    <path
       sodipodi:nodetypes="cc"
       style="fill:none;stroke:#000000;stroke-width:2;stroke-linecap:butt;stroke-linejoin:miter;stroke-miterlimit:4;stroke-opacity:1;stroke-dasharray:none"
       d="m 654.22539,332.34784 26.29627,-27.31748"
       id="path4380"
       inkscape:connector-curvature="0" />
    <path
       style="fill:none;stroke:#000000;stroke-width:2;stroke-linecap:butt;stroke-linejoin:miter;stroke-miterlimit:4;stroke-opacity:1;stroke-dasharray:none"
       d="m 652.04538,343.63941 29.61522,30.12582"
       id="path4382"
       inkscape:connector-curvature="0"
       sodipodi:nodetypes="cc" />
    <path
       style="fill:none;stroke:#000000;stroke-width:2;stroke-linecap:butt;stroke-linejoin:miter;stroke-miterlimit:4;stroke-opacity:1;stroke-dasharray:none"
       d="m 645.15218,343.63941 c -1.53182,0.25531 -32.67886,29.10461 -32.67886,29.10461"
       id="path4384"
       inkscape:connector-curvature="0"
       sodipodi:nodetypes="cc" />
    <path
       transform="matrix(1.018831,0,0,1.0417982,485.04347,-118.8598)"
       d="m 150.70214,347.38934 a 9.5901356,9.002985 0 1 1 -19.18028,0 9.5901356,9.002985 0 1 1 19.18028,0 z"
       sodipodi:ry="9.002985"
       sodipodi:rx="9.5901356"
       sodipodi:cy="347.38934"
       sodipodi:cx="141.112"
       id="path4386"
       style="fill:#22b14c;fill-opacity:1;stroke:#22b14c;stroke-width:1;stroke-miterlimit:4;stroke-dasharray:none;stroke-dashoffset:0"
       sodipodi:type="arc" />
    <path
       sodipodi:type="arc"
       style="fill:#ff0000;fill-opacity:1;stroke:#ff0000;stroke-width:1;stroke-miterlimit:4;stroke-dasharray:none;stroke-dashoffset:0"
       id="path4388"
       sodipodi:cx="141.112"
       sodipodi:cy="347.38934"
       sodipodi:rx="9.5901356"
       sodipodi:ry="9.002985"
       d="m 150.70214,347.38934 a 9.5901356,9.002985 0 1 1 -19.18028,0 9.5901356,9.002985 0 1 1 19.18028,0 z"
       transform="matrix(1.018831,0,0,1.0417982,506.74428,-23.886873)" />
    <path
       transform="matrix(1.018831,0,0,1.0417982,547.08225,-69.586216)"
       d="m 150.70214,347.38934 a 9.5901356,9.002985 0 1 1 -19.18028,0 9.5901356,9.002985 0 1 1 19.18028,0 z"
       sodipodi:ry="9.002985"
       sodipodi:rx="9.5901356"
       sodipodi:cy="347.38934"
       sodipodi:cx="141.112"
       id="path4362"
       style="fill:#ffc90e;fill-opacity:1;stroke:#ffc90e;stroke-width:1;stroke-miterlimit:4;stroke-dasharray:none;stroke-dashoffset:0"
       sodipodi:type="arc" />
  </g>
</svg>
